<svg xmlns="http://www.w3.org/2000/svg" xmlns:xlink="http://www.w3.org/1999/xlink" width="500" zoomAndPan="magnify" viewBox="0 0 375 374.999991" height="500" preserveAspectRatio="xMidYMid meet" version="1.0"><defs><clipPath id="5f2f409f2e"><path d="M 15 60.53125 L 360 60.53125 L 360 201 L 15 201 Z M 15 60.53125 " clip-rule="nonzero"/></clipPath><clipPath id="4333618f10"><path d="M 9.613281 103 L 367.363281 103 L 367.363281 315.53125 L 9.613281 315.53125 Z M 9.613281 103 " clip-rule="nonzero"/></clipPath></defs><g clip-path="url(#5f2f409f2e)"><path fill="#ffffff" d="M 165 192.316406 C 165.828125 192.957031 166.683594 193.558594 167.566406 194.125 C 168.445312 194.695312 169.347656 195.222656 170.269531 195.71875 C 171.195312 196.210938 172.136719 196.667969 173.097656 197.082031 C 174.058594 197.5 175.035156 197.875 176.027344 198.214844 C 177.015625 198.550781 178.019531 198.847656 179.035156 199.101562 C 180.050781 199.355469 181.078125 199.566406 182.109375 199.738281 C 183.144531 199.910156 184.183594 200.035156 185.226562 200.121094 C 186.269531 200.207031 187.316406 200.25 188.363281 200.25 C 189.410156 200.25 190.457031 200.207031 191.5 200.121094 C 192.542969 200.035156 193.582031 199.910156 194.613281 199.738281 C 195.648438 199.566406 196.671875 199.355469 197.6875 199.101562 C 198.703125 198.847656 199.707031 198.550781 200.699219 198.214844 C 201.691406 197.875 202.667969 197.5 203.628906 197.082031 C 204.589844 196.667969 205.53125 196.210938 206.453125 195.71875 C 207.378906 195.222656 208.28125 194.695312 209.160156 194.125 C 210.039062 193.558594 210.894531 192.957031 211.726562 192.316406 L 359.996094 76.789062 C 359.121094 75.539062 358.171875 74.34375 357.152344 73.207031 C 356.132812 72.070312 355.046875 71 353.898438 69.992188 C 352.75 68.988281 351.542969 68.050781 350.285156 67.191406 C 349.023438 66.328125 347.714844 65.546875 346.359375 64.839844 C 345.003906 64.136719 343.613281 63.515625 342.183594 62.976562 C 340.753906 62.4375 339.296875 61.988281 337.8125 61.625 C 336.328125 61.261719 334.828125 60.988281 333.3125 60.808594 C 331.796875 60.625 330.273438 60.53125 328.746094 60.53125 L 48.027344 60.53125 C 46.410156 60.535156 44.800781 60.640625 43.195312 60.851562 C 41.59375 61.058594 40.007812 61.367188 38.445312 61.777344 C 36.878906 62.1875 35.347656 62.695312 33.847656 63.300781 C 32.347656 63.902344 30.890625 64.601562 29.480469 65.390625 C 28.066406 66.179688 26.710938 67.054688 25.410156 68.015625 C 24.109375 68.980469 22.878906 70.019531 21.707031 71.136719 C 20.539062 72.257812 19.449219 73.445312 18.429688 74.703125 C 17.414062 75.960938 16.480469 77.277344 15.632812 78.652344 Z M 165 192.316406 " fill-opacity="1" fill-rule="nonzero"/></g><g clip-path="url(#4333618f10)"><path fill="#ffffff" d="M 227.355469 212.542969 C 225.972656 213.605469 224.546875 214.609375 223.082031 215.554688 C 221.617188 216.5 220.113281 217.382812 218.578125 218.207031 C 217.039062 219.03125 215.46875 219.789062 213.867188 220.484375 C 212.269531 221.175781 210.640625 221.804688 208.988281 222.367188 C 207.335938 222.925781 205.664062 223.417969 203.972656 223.84375 C 202.28125 224.265625 200.574219 224.621094 198.855469 224.90625 C 197.132812 225.191406 195.402344 225.402344 193.664062 225.546875 C 191.925781 225.6875 190.183594 225.761719 188.4375 225.761719 C 186.695312 225.761719 184.953125 225.6875 183.214844 225.546875 C 181.476562 225.402344 179.746094 225.191406 178.023438 224.90625 C 176.304688 224.621094 174.597656 224.265625 172.90625 223.84375 C 171.210938 223.417969 169.539062 222.925781 167.886719 222.367188 C 166.238281 221.804688 164.609375 221.175781 163.011719 220.484375 C 161.410156 219.789062 159.839844 219.03125 158.300781 218.207031 C 156.761719 217.382812 155.261719 216.5 153.796875 215.554688 C 152.328125 214.609375 150.90625 213.605469 149.519531 212.542969 L 9.75 106.25 L 9.75 277.453125 C 9.75 278.707031 9.808594 279.957031 9.933594 281.203125 C 10.054688 282.453125 10.238281 283.691406 10.484375 284.921875 C 10.730469 286.148438 11.03125 287.363281 11.398438 288.5625 C 11.761719 289.765625 12.183594 290.941406 12.664062 292.101562 C 13.140625 293.257812 13.675781 294.390625 14.269531 295.496094 C 14.859375 296.601562 15.503906 297.675781 16.199219 298.71875 C 16.894531 299.761719 17.640625 300.765625 18.4375 301.738281 C 19.234375 302.707031 20.074219 303.632812 20.960938 304.519531 C 21.847656 305.40625 22.773438 306.246094 23.742188 307.042969 C 24.714844 307.839844 25.71875 308.585938 26.761719 309.28125 C 27.804688 309.976562 28.878906 310.621094 29.984375 311.210938 C 31.089844 311.804688 32.222656 312.339844 33.378906 312.816406 C 34.539062 313.296875 35.714844 313.71875 36.917969 314.082031 C 38.117188 314.449219 39.332031 314.75 40.558594 314.996094 C 41.789062 315.242188 43.027344 315.425781 44.277344 315.546875 C 45.523438 315.671875 46.773438 315.730469 48.027344 315.730469 L 328.746094 315.730469 C 330 315.730469 331.25 315.671875 332.5 315.546875 C 333.746094 315.425781 334.984375 315.242188 336.214844 314.996094 C 337.445312 314.75 338.660156 314.449219 339.859375 314.082031 C 341.058594 313.71875 342.238281 313.296875 343.398438 312.816406 C 344.554688 312.339844 345.6875 311.804688 346.792969 311.210938 C 347.898438 310.621094 348.972656 309.976562 350.015625 309.28125 C 351.058594 308.585938 352.0625 307.839844 353.03125 307.042969 C 354 306.246094 354.929688 305.40625 355.816406 304.519531 C 356.703125 303.632812 357.542969 302.707031 358.339844 301.738281 C 359.132812 300.765625 359.878906 299.761719 360.574219 298.71875 C 361.273438 297.675781 361.917969 296.601562 362.507812 295.496094 C 363.097656 294.390625 363.632812 293.257812 364.113281 292.101562 C 364.59375 290.941406 365.015625 289.765625 365.378906 288.5625 C 365.742188 287.363281 366.046875 286.148438 366.292969 284.921875 C 366.535156 283.691406 366.71875 282.453125 366.84375 281.203125 C 366.964844 279.957031 367.027344 278.707031 367.027344 277.453125 L 367.027344 103.726562 Z M 227.355469 212.542969 " fill-opacity="1" fill-rule="nonzero"/></g></svg>