<?xml version="1.0" encoding="UTF-8"?>
<svg xmlns="http://www.w3.org/2000/svg" xmlns:xlink="http://www.w3.org/1999/xlink" width="750pt" height="749.999995pt" viewBox="0 0 750 749.999995" version="1.2">
<defs>
<clipPath id="clip1">
  <path d="M 55.585938 56 L 694.585938 56 L 694.585938 693 L 55.585938 693 Z M 55.585938 56 "/>
</clipPath>
</defs>
<g id="surface1">
<g clip-path="url(#clip1)" clip-rule="nonzero">
<path style=" stroke:none;fill-rule:nonzero;fill:rgb(100%,100%,100%);fill-opacity:1;" d="M 375.085938 56.816406 C 198.625 56.816406 55.585938 199.851562 55.585938 376.316406 C 55.585938 536.507812 173.582031 668.757812 327.332031 691.859375 L 327.332031 460.984375 L 248.269531 460.984375 L 248.269531 377.003906 L 327.332031 377.003906 L 327.332031 321.117188 C 327.332031 228.582031 372.40625 187.984375 449.308594 187.984375 C 486.125 187.984375 505.613281 190.710938 514.832031 191.964844 L 514.832031 265.277344 L 462.382812 265.277344 C 429.746094 265.277344 418.34375 296.21875 418.34375 331.117188 L 418.34375 377.027344 L 514.019531 377.027344 L 501.042969 461.007812 L 418.34375 461.007812 L 418.34375 692.570312 C 574.28125 671.386719 694.585938 538.054688 694.585938 376.316406 C 694.585938 199.851562 551.550781 56.816406 375.085938 56.816406 Z M 375.085938 56.816406 "/>
</g>
</g>
</svg>
