<svg xmlns="http://www.w3.org/2000/svg" xmlns:xlink="http://www.w3.org/1999/xlink" width="500" zoomAndPan="magnify" viewBox="0 0 375 374.999991" height="500" preserveAspectRatio="xMidYMid meet" version="1.0"><defs><clipPath id="cc2320883c"><path d="M 63.597656 7 L 311.097656 7 L 311.097656 362 L 63.597656 362 Z M 63.597656 7 " clip-rule="nonzero"/></clipPath></defs><g clip-path="url(#cc2320883c)"><path fill="#ffffff" d="M 187.496094 7.070312 C 255.921875 7.070312 311.394531 62.542969 311.394531 130.972656 C 311.394531 154.78125 304.675781 177.015625 293.035156 195.894531 C 279.070312 219.023438 265.105469 242.15625 251.144531 265.289062 C 234.136719 292.929688 220.378906 315.300781 203.375 342.945312 C 188.382812 367.316406 187.367188 367.917969 172.296875 343.417969 C 155.378906 315.914062 141.152344 292.792969 124.234375 265.289062 C 110.304688 242.417969 96.375 219.546875 82.445312 196.675781 C 70.507812 177.628906 63.597656 155.109375 63.597656 130.972656 C 63.597656 62.542969 119.070312 7.070312 187.496094 7.070312 Z M 187.496094 69.191406 C 218.171875 69.191406 243.042969 94.058594 243.042969 124.734375 C 243.042969 155.410156 218.171875 180.277344 187.496094 180.277344 C 156.820312 180.277344 131.953125 155.410156 131.953125 124.734375 C 131.953125 94.058594 156.820312 69.191406 187.496094 69.191406 Z M 187.496094 69.191406 " fill-opacity="1" fill-rule="evenodd"/></g></svg>