<svg xmlns="http://www.w3.org/2000/svg" xmlns:xlink="http://www.w3.org/1999/xlink" width="500" zoomAndPan="magnify" viewBox="0 0 375 374.999991" height="500" preserveAspectRatio="xMidYMid meet" version="1.0"><defs><clipPath id="aad6d15dde"><path d="M 191 9.996094 L 363.605469 9.996094 L 363.605469 182 L 191 182 Z M 191 9.996094 " clip-rule="nonzero"/></clipPath></defs><path fill="#ffffff" d="M 191.507812 69.332031 C 191.507812 68.980469 191.542969 68.628906 191.613281 68.285156 C 191.679688 67.9375 191.78125 67.601562 191.917969 67.277344 C 192.050781 66.953125 192.21875 66.640625 192.414062 66.347656 C 192.609375 66.054688 192.832031 65.785156 193.082031 65.535156 C 193.332031 65.285156 193.601562 65.0625 193.894531 64.867188 C 194.1875 64.671875 194.496094 64.507812 194.824219 64.371094 C 195.148438 64.238281 195.484375 64.136719 195.828125 64.066406 C 196.175781 63.996094 196.523438 63.964844 196.875 63.964844 C 198.714844 63.964844 200.550781 64.011719 202.386719 64.105469 C 204.222656 64.195312 206.054688 64.332031 207.882812 64.515625 C 209.710938 64.695312 211.535156 64.921875 213.351562 65.195312 C 215.171875 65.464844 216.980469 65.78125 218.78125 66.140625 C 220.585938 66.5 222.378906 66.90625 224.160156 67.351562 C 225.941406 67.800781 227.710938 68.292969 229.472656 68.824219 C 231.230469 69.359375 232.972656 69.9375 234.703125 70.558594 C 236.433594 71.179688 238.148438 71.839844 239.84375 72.542969 C 241.542969 73.25 243.222656 73.992188 244.882812 74.78125 C 246.542969 75.566406 248.183594 76.394531 249.804688 77.261719 C 251.425781 78.128906 253.023438 79.035156 254.601562 79.980469 C 256.175781 80.925781 257.726562 81.90625 259.257812 82.929688 C 260.785156 83.949219 262.285156 85.007812 263.761719 86.105469 C 265.238281 87.199219 266.6875 88.328125 268.105469 89.496094 C 269.527344 90.660156 270.917969 91.863281 272.28125 93.097656 C 273.640625 94.332031 274.972656 95.597656 276.269531 96.898438 C 277.570312 98.195312 278.839844 99.527344 280.070312 100.890625 C 281.304688 102.25 282.507812 103.640625 283.671875 105.0625 C 284.839844 106.484375 285.96875 107.929688 287.066406 109.40625 C 288.160156 110.882812 289.21875 112.382812 290.238281 113.914062 C 291.261719 115.441406 292.242188 116.992188 293.1875 118.570312 C 294.132812 120.144531 295.039062 121.742188 295.90625 123.363281 C 296.773438 124.984375 297.601562 126.625 298.386719 128.285156 C 299.175781 129.945312 299.921875 131.625 300.625 133.324219 C 301.328125 135.019531 301.992188 136.734375 302.609375 138.464844 C 303.230469 140.195312 303.808594 141.9375 304.34375 143.699219 C 304.878906 145.457031 305.367188 147.226562 305.816406 149.007812 C 306.265625 150.792969 306.667969 152.582031 307.027344 154.386719 C 307.386719 156.1875 307.703125 157.996094 307.972656 159.816406 C 308.246094 161.632812 308.472656 163.457031 308.652344 165.285156 C 308.835938 167.113281 308.972656 168.945312 309.0625 170.78125 C 309.15625 172.617188 309.203125 174.453125 309.203125 176.292969 C 309.203125 176.644531 309.171875 176.992188 309.101562 177.339844 C 309.03125 177.683594 308.929688 178.019531 308.796875 178.347656 C 308.660156 178.671875 308.496094 178.980469 308.300781 179.273438 C 308.105469 179.566406 307.882812 179.839844 307.632812 180.085938 C 307.382812 180.335938 307.113281 180.558594 306.820312 180.753906 C 306.527344 180.949219 306.21875 181.117188 305.890625 181.25 C 305.566406 181.386719 305.230469 181.488281 304.882812 181.558594 C 304.539062 181.625 304.191406 181.660156 303.835938 181.660156 C 303.484375 181.660156 303.136719 181.625 302.789062 181.558594 C 302.445312 181.488281 302.109375 181.386719 301.78125 181.25 C 301.457031 181.117188 301.148438 180.949219 300.855469 180.753906 C 300.5625 180.558594 300.289062 180.335938 300.042969 180.085938 C 299.792969 179.839844 299.570312 179.566406 299.375 179.273438 C 299.179688 178.980469 299.011719 178.671875 298.878906 178.347656 C 298.742188 178.019531 298.640625 177.683594 298.570312 177.339844 C 298.503906 176.992188 298.46875 176.644531 298.46875 176.292969 C 298.46875 174.628906 298.425781 172.96875 298.339844 171.308594 C 298.257812 169.648438 298.132812 167.992188 297.96875 166.335938 C 297.804688 164.683594 297.601562 163.035156 297.355469 161.390625 C 297.109375 159.746094 296.824219 158.109375 296.5 156.480469 C 296.171875 154.851562 295.808594 153.230469 295.402344 151.617188 C 294.996094 150.003906 294.550781 148.402344 294.070312 146.8125 C 293.585938 145.222656 293.0625 143.644531 292.503906 142.082031 C 291.941406 140.515625 291.34375 138.96875 290.707031 137.433594 C 290.070312 135.898438 289.394531 134.378906 288.683594 132.875 C 287.972656 131.375 287.222656 129.890625 286.441406 128.425781 C 285.65625 126.957031 284.835938 125.511719 283.980469 124.085938 C 283.125 122.664062 282.238281 121.257812 281.3125 119.878906 C 280.390625 118.496094 279.433594 117.136719 278.441406 115.800781 C 277.449219 114.46875 276.429688 113.15625 275.375 111.871094 C 274.320312 110.589844 273.234375 109.332031 272.117188 108.097656 C 271 106.867188 269.855469 105.664062 268.679688 104.488281 C 267.503906 103.3125 266.300781 102.167969 265.070312 101.050781 C 263.839844 99.933594 262.582031 98.847656 261.296875 97.792969 C 260.011719 96.738281 258.699219 95.71875 257.367188 94.726562 C 256.03125 93.738281 254.671875 92.78125 253.292969 91.855469 C 251.910156 90.933594 250.507812 90.042969 249.082031 89.1875 C 247.65625 88.332031 246.210938 87.511719 244.746094 86.730469 C 243.277344 85.945312 241.796875 85.195312 240.292969 84.484375 C 238.789062 83.773438 237.273438 83.101562 235.738281 82.464844 C 234.203125 81.828125 232.652344 81.226562 231.085938 80.667969 C 229.523438 80.105469 227.945312 79.582031 226.355469 79.101562 C 224.765625 78.617188 223.164062 78.171875 221.550781 77.765625 C 219.9375 77.363281 218.320312 76.996094 216.6875 76.671875 C 215.058594 76.34375 213.421875 76.058594 211.777344 75.8125 C 210.132812 75.570312 208.484375 75.363281 206.832031 75.199219 C 205.175781 75.035156 203.519531 74.910156 201.859375 74.828125 C 200.199219 74.742188 198.539062 74.703125 196.875 74.699219 C 196.523438 74.699219 196.175781 74.664062 195.828125 74.597656 C 195.484375 74.527344 195.148438 74.425781 194.824219 74.289062 C 194.496094 74.15625 194.1875 73.992188 193.894531 73.792969 C 193.601562 73.597656 193.332031 73.375 193.082031 73.128906 C 192.832031 72.878906 192.609375 72.605469 192.414062 72.3125 C 192.21875 72.019531 192.050781 71.710938 191.917969 71.386719 C 191.78125 71.058594 191.679688 70.722656 191.613281 70.378906 C 191.542969 70.03125 191.507812 69.683594 191.507812 69.332031 Z M 191.507812 69.332031 " fill-opacity="1" fill-rule="nonzero"/><g clip-path="url(#aad6d15dde)"><path fill="#ffffff" d="M 363.34375 176.292969 C 363.34375 176.644531 363.308594 176.992188 363.238281 177.339844 C 363.171875 177.683594 363.066406 178.019531 362.933594 178.347656 C 362.796875 178.671875 362.632812 178.980469 362.4375 179.273438 C 362.242188 179.566406 362.019531 179.839844 361.769531 180.085938 C 361.519531 180.335938 361.25 180.558594 360.957031 180.753906 C 360.664062 180.949219 360.355469 181.117188 360.027344 181.25 C 359.703125 181.386719 359.367188 181.488281 359.019531 181.558594 C 358.675781 181.625 358.328125 181.660156 357.972656 181.660156 C 357.621094 181.660156 357.273438 181.625 356.925781 181.558594 C 356.582031 181.488281 356.246094 181.386719 355.917969 181.25 C 355.59375 181.117188 355.285156 180.949219 354.992188 180.753906 C 354.699219 180.558594 354.425781 180.335938 354.179688 180.085938 C 353.929688 179.839844 353.707031 179.566406 353.511719 179.273438 C 353.316406 178.980469 353.148438 178.671875 353.015625 178.347656 C 352.878906 178.019531 352.777344 177.683594 352.710938 177.339844 C 352.640625 176.992188 352.605469 176.644531 352.605469 176.292969 C 352.605469 173.742188 352.539062 171.195312 352.414062 168.652344 C 352.285156 166.105469 352.097656 163.566406 351.847656 161.027344 C 351.59375 158.492188 351.28125 155.964844 350.90625 153.445312 C 350.53125 150.921875 350.09375 148.414062 349.59375 145.914062 C 349.097656 143.414062 348.539062 140.929688 347.917969 138.457031 C 347.296875 135.984375 346.617188 133.53125 345.875 131.09375 C 345.132812 128.652344 344.335938 126.234375 343.476562 123.835938 C 342.617188 121.4375 341.699219 119.058594 340.722656 116.707031 C 339.746094 114.351562 338.714844 112.023438 337.625 109.71875 C 336.535156 107.414062 335.386719 105.140625 334.1875 102.894531 C 332.984375 100.644531 331.726562 98.429688 330.417969 96.242188 C 329.105469 94.058594 327.742188 91.90625 326.328125 89.785156 C 324.914062 87.667969 323.445312 85.585938 321.925781 83.539062 C 320.410156 81.492188 318.839844 79.480469 317.226562 77.511719 C 315.609375 75.542969 313.945312 73.613281 312.234375 71.722656 C 310.523438 69.835938 308.765625 67.988281 306.964844 66.1875 C 305.164062 64.386719 303.316406 62.628906 301.429688 60.917969 C 299.542969 59.203125 297.613281 57.539062 295.644531 55.921875 C 293.675781 54.304688 291.667969 52.738281 289.621094 51.21875 C 287.574219 49.699219 285.492188 48.230469 283.371094 46.816406 C 281.253906 45.398438 279.101562 44.035156 276.917969 42.722656 C 274.730469 41.410156 272.515625 40.15625 270.269531 38.953125 C 268.023438 37.75 265.746094 36.601562 263.445312 35.511719 C 261.140625 34.421875 258.8125 33.386719 256.457031 32.410156 C 254.105469 31.433594 251.726562 30.515625 249.328125 29.65625 C 246.929688 28.796875 244.511719 27.996094 242.074219 27.253906 C 239.636719 26.511719 237.179688 25.828125 234.710938 25.207031 C 232.238281 24.585938 229.753906 24.027344 227.253906 23.527344 C 224.753906 23.027344 222.246094 22.589844 219.722656 22.214844 C 217.203125 21.835938 214.675781 21.523438 212.140625 21.269531 C 209.601562 21.019531 207.0625 20.828125 204.515625 20.703125 C 201.972656 20.574219 199.425781 20.507812 196.875 20.503906 C 196.523438 20.503906 196.175781 20.472656 195.828125 20.402344 C 195.484375 20.332031 195.148438 20.230469 194.824219 20.097656 C 194.496094 19.960938 194.1875 19.796875 193.894531 19.601562 C 193.601562 19.40625 193.332031 19.183594 193.082031 18.933594 C 192.832031 18.683594 192.609375 18.414062 192.414062 18.121094 C 192.21875 17.828125 192.050781 17.515625 191.917969 17.191406 C 191.78125 16.867188 191.679688 16.53125 191.613281 16.183594 C 191.542969 15.839844 191.507812 15.488281 191.507812 15.136719 C 191.507812 14.785156 191.542969 14.4375 191.613281 14.089844 C 191.679688 13.746094 191.78125 13.410156 191.917969 13.082031 C 192.050781 12.757812 192.21875 12.449219 192.414062 12.15625 C 192.609375 11.863281 192.832031 11.589844 193.082031 11.339844 C 193.332031 11.09375 193.601562 10.871094 193.894531 10.675781 C 194.1875 10.476562 194.496094 10.3125 194.824219 10.179688 C 195.148438 10.042969 195.484375 9.941406 195.828125 9.871094 C 196.175781 9.804688 196.523438 9.769531 196.875 9.769531 C 199.601562 9.773438 202.324219 9.84375 205.042969 9.980469 C 207.761719 10.117188 210.480469 10.320312 213.191406 10.59375 C 215.898438 10.863281 218.601562 11.199219 221.296875 11.601562 C 223.988281 12.003906 226.671875 12.472656 229.34375 13.007812 C 232.015625 13.542969 234.671875 14.140625 237.3125 14.804688 C 239.953125 15.46875 242.578125 16.199219 245.183594 16.992188 C 247.789062 17.785156 250.375 18.640625 252.9375 19.5625 C 255.503906 20.480469 258.042969 21.464844 260.558594 22.507812 C 263.074219 23.550781 265.5625 24.65625 268.023438 25.824219 C 270.484375 26.988281 272.917969 28.214844 275.320312 29.5 C 277.71875 30.785156 280.089844 32.128906 282.425781 33.53125 C 284.757812 34.933594 287.058594 36.390625 289.324219 37.90625 C 291.585938 39.421875 293.8125 40.988281 296 42.613281 C 298.1875 44.234375 300.335938 45.914062 302.4375 47.640625 C 304.542969 49.371094 306.605469 51.148438 308.625 52.980469 C 310.640625 54.808594 312.613281 56.6875 314.539062 58.613281 C 316.464844 60.539062 318.34375 62.511719 320.171875 64.53125 C 322 66.546875 323.777344 68.609375 325.507812 70.714844 C 327.234375 72.820312 328.910156 74.96875 330.53125 77.15625 C 332.15625 79.34375 333.722656 81.570312 335.238281 83.835938 C 336.75 86.101562 338.207031 88.398438 339.609375 90.738281 C 341.007812 93.074219 342.351562 95.441406 343.636719 97.84375 C 344.921875 100.246094 346.148438 102.675781 347.3125 105.140625 C 348.476562 107.601562 349.582031 110.089844 350.625 112.605469 C 351.667969 115.121094 352.652344 117.664062 353.570312 120.226562 C 354.488281 122.789062 355.34375 125.375 356.136719 127.980469 C 356.929688 130.589844 357.65625 133.210938 358.320312 135.855469 C 358.984375 138.496094 359.582031 141.152344 360.117188 143.824219 C 360.648438 146.496094 361.117188 149.175781 361.519531 151.871094 C 361.921875 154.566406 362.253906 157.269531 362.523438 159.980469 C 362.792969 162.6875 362.996094 165.40625 363.132812 168.125 C 363.269531 170.847656 363.339844 173.566406 363.34375 176.292969 Z M 363.34375 176.292969 " fill-opacity="1" fill-rule="nonzero"/></g><path fill="#ffffff" d="M 191.507812 123.46875 C 191.507812 123.117188 191.542969 122.765625 191.613281 122.421875 C 191.679688 122.074219 191.78125 121.738281 191.917969 121.414062 C 192.050781 121.089844 192.21875 120.777344 192.414062 120.484375 C 192.609375 120.191406 192.832031 119.921875 193.082031 119.671875 C 193.332031 119.421875 193.601562 119.199219 193.894531 119.003906 C 194.1875 118.808594 194.496094 118.644531 194.824219 118.507812 C 195.148438 118.375 195.484375 118.273438 195.828125 118.203125 C 196.175781 118.136719 196.523438 118.101562 196.875 118.101562 C 198.777344 118.109375 200.675781 118.207031 202.566406 118.402344 C 204.457031 118.59375 206.332031 118.878906 208.195312 119.257812 C 210.058594 119.632812 211.902344 120.101562 213.71875 120.660156 C 215.535156 121.21875 217.320312 121.863281 219.074219 122.59375 C 220.828125 123.328125 222.542969 124.144531 224.21875 125.046875 C 225.890625 125.945312 227.519531 126.925781 229.097656 127.988281 C 230.675781 129.046875 232.195312 130.179688 233.664062 131.390625 C 235.128906 132.601562 236.535156 133.878906 237.875 135.226562 C 239.21875 136.570312 240.492188 137.980469 241.695312 139.453125 C 242.898438 140.925781 244.027344 142.449219 245.082031 144.035156 C 246.132812 145.617188 247.109375 147.246094 248.003906 148.921875 C 248.894531 150.601562 249.707031 152.316406 250.433594 154.074219 C 251.15625 155.832031 251.796875 157.621094 252.347656 159.441406 C 252.898438 161.261719 253.355469 163.101562 253.726562 164.96875 C 254.097656 166.832031 254.375 168.710938 254.5625 170.601562 C 254.746094 172.496094 254.839844 174.390625 254.839844 176.292969 C 254.84375 176.644531 254.8125 176.996094 254.746094 177.34375 C 254.679688 177.691406 254.582031 178.027344 254.445312 178.355469 C 254.3125 178.683594 254.148438 178.992188 253.953125 179.289062 C 253.757812 179.582031 253.535156 179.855469 253.285156 180.105469 C 253.035156 180.355469 252.761719 180.578125 252.46875 180.773438 C 252.171875 180.96875 251.863281 181.132812 251.535156 181.265625 C 251.207031 181.402344 250.871094 181.5 250.523438 181.566406 C 250.175781 181.632812 249.824219 181.664062 249.472656 181.660156 C 249.125 181.640625 248.785156 181.589844 248.445312 181.503906 C 248.109375 181.421875 247.78125 181.3125 247.464844 181.167969 C 247.148438 181.027344 246.847656 180.855469 246.5625 180.660156 C 246.277344 180.464844 246.011719 180.242188 245.765625 179.996094 C 245.519531 179.75 245.300781 179.484375 245.101562 179.199219 C 244.90625 178.914062 244.738281 178.613281 244.59375 178.296875 C 244.453125 177.980469 244.339844 177.652344 244.257812 177.316406 C 244.175781 176.980469 244.125 176.636719 244.105469 176.292969 C 244.105469 174.738281 244.027344 173.191406 243.875 171.644531 C 243.722656 170.097656 243.496094 168.5625 243.191406 167.039062 C 242.890625 165.515625 242.515625 164.011719 242.0625 162.527344 C 241.613281 161.039062 241.089844 159.578125 240.496094 158.144531 C 239.902344 156.710938 239.242188 155.308594 238.507812 153.9375 C 237.777344 152.566406 236.980469 151.238281 236.117188 149.945312 C 235.253906 148.652344 234.332031 147.40625 233.347656 146.207031 C 232.363281 145.003906 231.320312 143.855469 230.222656 142.757812 C 229.128906 141.65625 227.976562 140.613281 226.777344 139.628906 C 225.578125 138.644531 224.332031 137.71875 223.042969 136.855469 C 221.753906 135.988281 220.421875 135.191406 219.054688 134.457031 C 217.683594 133.726562 216.28125 133.0625 214.847656 132.464844 C 213.414062 131.871094 211.953125 131.34375 210.46875 130.894531 C 208.984375 130.441406 207.476562 130.0625 205.957031 129.757812 C 204.433594 129.453125 202.898438 129.222656 201.351562 129.070312 C 199.808594 128.917969 198.257812 128.839844 196.707031 128.835938 C 196.359375 128.824219 196.019531 128.78125 195.683594 128.703125 C 195.347656 128.628906 195.019531 128.519531 194.703125 128.378906 C 194.386719 128.238281 194.089844 128.070312 193.804688 127.875 C 193.523438 127.675781 193.261719 127.453125 193.019531 127.203125 C 192.78125 126.957031 192.566406 126.6875 192.378906 126.398438 C 192.1875 126.109375 192.03125 125.804688 191.898438 125.484375 C 191.769531 125.164062 191.671875 124.835938 191.605469 124.496094 C 191.542969 124.15625 191.507812 123.8125 191.507812 123.46875 Z M 191.507812 123.46875 " fill-opacity="1" fill-rule="nonzero"/><path fill="#ffffff" d="M 344.953125 290.960938 L 344.953125 301.355469 C 344.945312 303.367188 344.742188 305.355469 344.34375 307.328125 C 343.945312 309.300781 343.359375 311.214844 342.585938 313.070312 C 341.808594 314.925781 340.863281 316.6875 339.742188 318.359375 C 338.625 320.03125 337.351562 321.578125 335.929688 323 L 307.835938 350.867188 C 306.433594 352.261719 304.90625 353.507812 303.261719 354.605469 C 301.617188 355.699219 299.882812 356.628906 298.054688 357.386719 C 296.230469 358.148438 294.347656 358.722656 292.40625 359.113281 C 290.46875 359.507812 288.511719 359.707031 286.535156 359.71875 L 285.277344 359.71875 C 280.816406 359.527344 276.359375 359.230469 271.910156 358.832031 C 267.464844 358.433594 263.027344 357.929688 258.601562 357.324219 C 254.175781 356.722656 249.769531 356.015625 245.375 355.203125 C 240.984375 354.394531 236.613281 353.484375 232.261719 352.472656 C 227.914062 351.460938 223.589844 350.347656 219.289062 349.132812 C 214.992188 347.921875 210.726562 346.609375 206.488281 345.199219 C 202.25 343.789062 198.046875 342.277344 193.878906 340.671875 C 189.710938 339.066406 185.585938 337.363281 181.496094 335.566406 C 177.410156 333.769531 173.363281 331.878906 169.363281 329.894531 C 165.363281 327.90625 161.410156 325.832031 157.507812 323.660156 C 153.601562 321.492188 149.75 319.234375 145.949219 316.886719 C 142.152344 314.539062 138.410156 312.105469 134.722656 309.582031 C 131.035156 307.0625 127.410156 304.457031 123.84375 301.765625 C 120.277344 299.078125 116.777344 296.304688 113.339844 293.453125 C 109.902344 290.601562 106.535156 287.671875 103.234375 284.664062 C 99.933594 281.65625 96.703125 278.570312 93.546875 275.414062 C 90.390625 272.253906 87.304688 269.023438 84.296875 265.722656 C 81.289062 262.421875 78.359375 259.050781 75.511719 255.617188 C 72.660156 252.179688 69.886719 248.675781 67.199219 245.109375 C 64.511719 241.542969 61.90625 237.917969 59.386719 234.230469 C 56.863281 230.542969 54.429688 226.800781 52.085938 223 C 49.738281 219.199219 47.480469 215.347656 45.3125 211.445312 C 43.144531 207.539062 41.066406 203.585938 39.082031 199.585938 C 37.097656 195.585938 35.207031 191.539062 33.410156 187.449219 C 31.613281 183.363281 29.914062 179.234375 28.308594 175.066406 C 26.703125 170.898438 25.195312 166.695312 23.785156 162.457031 C 22.375 158.21875 21.0625 153.953125 19.851562 149.652344 C 18.640625 145.355469 17.527344 141.03125 16.515625 136.679688 C 15.503906 132.332031 14.59375 127.960938 13.785156 123.566406 C 12.976562 119.175781 12.273438 114.765625 11.667969 110.339844 C 11.0625 105.914062 10.5625 101.480469 10.164062 97.03125 C 9.769531 92.582031 9.472656 88.128906 9.28125 83.664062 C 9.171875 81.558594 9.28125 79.464844 9.613281 77.382812 C 9.945312 75.300781 10.488281 73.273438 11.246094 71.308594 C 12.003906 69.339844 12.957031 67.472656 14.109375 65.707031 C 15.261719 63.9375 16.582031 62.3125 18.078125 60.824219 L 45.945312 33.011719 C 47.367188 31.589844 48.914062 30.320312 50.585938 29.203125 C 52.253906 28.082031 54.019531 27.136719 55.875 26.363281 C 57.730469 25.589844 59.644531 25.003906 61.613281 24.601562 C 63.585938 24.203125 65.578125 24 67.585938 23.988281 L 77.808594 23.988281 C 79.347656 23.992188 80.878906 24.109375 82.402344 24.34375 C 83.925781 24.574219 85.417969 24.921875 86.890625 25.382812 C 88.359375 25.839844 89.785156 26.40625 91.167969 27.082031 C 92.554688 27.753906 93.878906 28.53125 95.148438 29.40625 C 96.414062 30.277344 97.609375 31.242188 98.730469 32.296875 C 99.851562 33.351562 100.886719 34.484375 101.839844 35.695312 C 102.789062 36.90625 103.644531 38.183594 104.402344 39.523438 C 105.160156 40.863281 105.8125 42.253906 106.363281 43.691406 L 131.03125 109.25 C 131.527344 110.578125 131.925781 111.9375 132.226562 113.324219 C 132.53125 114.707031 132.738281 116.109375 132.851562 117.523438 C 132.960938 118.9375 132.972656 120.351562 132.886719 121.765625 C 132.800781 123.183594 132.613281 124.585938 132.335938 125.976562 C 132.054688 127.367188 131.675781 128.730469 131.207031 130.070312 C 130.738281 131.410156 130.175781 132.707031 129.523438 133.96875 C 128.875 135.230469 128.140625 136.4375 127.320312 137.597656 C 126.503906 138.753906 125.609375 139.851562 124.636719 140.886719 L 114.414062 151.679688 C 113.644531 152.492188 112.945312 153.363281 112.324219 154.296875 C 111.703125 155.230469 111.164062 156.207031 110.710938 157.234375 C 110.253906 158.257812 109.890625 159.3125 109.617188 160.402344 C 109.34375 161.488281 109.164062 162.589844 109.078125 163.707031 C 108.992188 164.824219 109.003906 165.941406 109.109375 167.058594 C 109.214844 168.175781 109.414062 169.273438 109.710938 170.355469 C 110.003906 171.4375 110.386719 172.484375 110.859375 173.5 C 111.335938 174.515625 111.890625 175.484375 112.53125 176.40625 C 123.328125 192.101562 135.445312 206.703125 148.878906 220.214844 C 162.3125 233.722656 176.847656 245.921875 192.480469 256.8125 C 193.402344 257.414062 194.367188 257.933594 195.375 258.371094 C 196.386719 258.808594 197.425781 259.160156 198.492188 259.425781 C 199.558594 259.691406 200.644531 259.867188 201.742188 259.949219 C 202.835938 260.03125 203.933594 260.023438 205.03125 259.925781 C 206.125 259.824219 207.207031 259.632812 208.269531 259.351562 C 209.332031 259.070312 210.367188 258.703125 211.367188 258.25 C 212.371094 257.792969 213.328125 257.257812 214.242188 256.644531 C 215.152344 256.03125 216.007812 255.34375 216.808594 254.585938 L 227.769531 244.191406 C 228.804688 243.222656 229.902344 242.324219 231.0625 241.507812 C 232.21875 240.6875 233.429688 239.953125 234.6875 239.304688 C 235.949219 238.652344 237.25 238.09375 238.585938 237.621094 C 239.925781 237.152344 241.289062 236.777344 242.679688 236.496094 C 244.070312 236.214844 245.472656 236.03125 246.890625 235.941406 C 248.304688 235.855469 249.71875 235.867188 251.136719 235.980469 C 252.550781 236.089844 253.949219 236.296875 255.335938 236.601562 C 256.71875 236.90625 258.078125 237.304688 259.410156 237.796875 L 324.964844 262.464844 C 326.414062 263 327.816406 263.644531 329.167969 264.394531 C 330.519531 265.140625 331.808594 265.988281 333.035156 266.929688 C 334.257812 267.875 335.402344 268.90625 336.472656 270.023438 C 337.539062 271.140625 338.515625 272.332031 339.40625 273.597656 C 340.292969 274.863281 341.078125 276.1875 341.765625 277.570312 C 342.453125 278.957031 343.03125 280.382812 343.503906 281.855469 C 343.972656 283.328125 344.328125 284.828125 344.574219 286.355469 C 344.816406 287.878906 344.941406 289.417969 344.953125 290.960938 Z M 344.953125 290.960938 " fill-opacity="1" fill-rule="nonzero"/></svg>