<svg xmlns="http://www.w3.org/2000/svg" xmlns:xlink="http://www.w3.org/1999/xlink" width="500" zoomAndPan="magnify" viewBox="0 0 375 374.999991" height="500" preserveAspectRatio="xMidYMid meet" version="1.0"><defs><clipPath id="9b9713c50b"><path d="M 5.523438 5.296875 L 369.273438 5.296875 L 369.273438 369 L 5.523438 369 Z M 5.523438 5.296875 " clip-rule="nonzero"/></clipPath></defs><g clip-path="url(#9b9713c50b)"><path fill="#ffffff" d="M 369.074219 187.101562 C 369.070312 194.742188 368.589844 202.355469 367.628906 209.9375 C 366.667969 217.519531 365.234375 225.011719 363.328125 232.410156 C 361.421875 239.8125 359.0625 247.0625 356.242188 254.167969 C 353.425781 261.269531 350.171875 268.167969 346.484375 274.859375 C 312.933594 335.746094 249.640625 369.808594 184.710938 368.914062 C 184.296875 368.90625 183.886719 368.878906 183.480469 368.828125 C 183.070312 368.773438 182.664062 368.699219 182.265625 368.601562 C 181.863281 368.503906 181.472656 368.386719 181.085938 368.246094 C 180.699219 368.101562 180.320312 367.941406 179.953125 367.753906 C 179.582031 367.570312 179.226562 367.367188 178.882812 367.140625 C 178.535156 366.917969 178.203125 366.675781 177.886719 366.414062 C 177.566406 366.152344 177.265625 365.871094 176.976562 365.574219 C 176.691406 365.28125 176.421875 364.96875 176.171875 364.640625 C 175.917969 364.316406 175.6875 363.976562 175.472656 363.625 C 175.257812 363.273438 175.066406 362.910156 174.894531 362.535156 C 174.722656 362.160156 174.570312 361.777344 174.441406 361.386719 C 174.3125 360.996094 174.203125 360.597656 174.121094 360.195312 C 174.035156 359.789062 173.972656 359.382812 173.933594 358.972656 C 173.894531 358.5625 173.878906 358.152344 173.886719 357.738281 C 173.894531 357.328125 173.921875 356.917969 173.976562 356.507812 C 174.03125 356.097656 174.105469 355.695312 174.207031 355.292969 L 176.230469 347.117188 C 176.378906 346.523438 176.574219 345.949219 176.816406 345.386719 C 177.058594 344.828125 177.347656 344.289062 177.679688 343.777344 C 178.015625 343.265625 178.386719 342.785156 178.800781 342.335938 C 179.214844 341.882812 179.660156 341.472656 180.144531 341.097656 C 180.625 340.722656 181.132812 340.386719 181.671875 340.097656 C 182.210938 339.808594 182.765625 339.5625 183.34375 339.367188 C 183.921875 339.167969 184.511719 339.023438 185.117188 338.921875 C 185.71875 338.824219 186.324219 338.777344 186.9375 338.777344 C 187.097656 338.777344 187.257812 338.777344 187.421875 338.777344 C 271.125 338.777344 338.980469 270.871094 338.980469 187.097656 C 338.980469 102.984375 270.5625 34.859375 186.386719 35.421875 C 102.894531 35.980469 35.828125 103.601562 35.859375 187.15625 C 35.882812 244.046875 67.195312 293.613281 113.515625 319.550781 C 114.132812 319.898438 114.71875 320.300781 115.269531 320.75 C 115.816406 321.203125 116.324219 321.699219 116.785156 322.242188 C 117.246094 322.78125 117.65625 323.359375 118.015625 323.972656 C 118.375 324.589844 118.675781 325.230469 118.921875 325.894531 C 119.167969 326.5625 119.355469 327.246094 119.480469 327.949219 C 119.605469 328.648438 119.667969 329.355469 119.667969 330.066406 C 119.667969 330.777344 119.609375 331.484375 119.484375 332.183594 C 119.359375 332.886719 119.175781 333.570312 118.929688 334.238281 L 116.847656 339.910156 C 116.699219 340.316406 116.53125 340.714844 116.339844 341.101562 C 116.148438 341.492188 115.9375 341.867188 115.707031 342.234375 C 115.472656 342.597656 115.222656 342.953125 114.953125 343.289062 C 114.683594 343.628906 114.398438 343.953125 114.09375 344.257812 C 113.789062 344.566406 113.46875 344.855469 113.132812 345.128906 C 112.796875 345.402344 112.449219 345.65625 112.085938 345.894531 C 111.722656 346.128906 111.347656 346.34375 110.960938 346.539062 C 110.574219 346.734375 110.179688 346.90625 109.773438 347.058594 C 109.371094 347.214844 108.957031 347.34375 108.539062 347.453125 C 108.121094 347.558594 107.695312 347.644531 107.269531 347.707031 C 106.839844 347.769531 106.410156 347.808594 105.976562 347.824219 C 105.546875 347.839844 105.113281 347.835938 104.683594 347.804688 C 104.25 347.773438 103.824219 347.71875 103.398438 347.644531 C 102.972656 347.566406 102.550781 347.46875 102.136719 347.347656 C 101.71875 347.226562 101.3125 347.082031 100.914062 346.914062 C 100.515625 346.75 100.125 346.5625 99.746094 346.355469 L 99.621094 346.289062 C 98.140625 345.46875 96.59375 344.804688 94.980469 344.289062 C 93.367188 343.773438 91.71875 343.421875 90.035156 343.230469 C 88.355469 343.039062 86.667969 343.011719 84.980469 343.152344 C 83.296875 343.292969 81.636719 343.59375 80.007812 344.058594 L 25.527344 359.582031 C 25.28125 359.652344 25.027344 359.707031 24.773438 359.742188 C 24.515625 359.78125 24.261719 359.804688 24.003906 359.8125 C 23.746094 359.816406 23.488281 359.808594 23.230469 359.78125 C 22.972656 359.753906 22.71875 359.710938 22.46875 359.652344 C 22.214844 359.59375 21.96875 359.515625 21.726562 359.425781 C 21.484375 359.335938 21.25 359.230469 21.023438 359.109375 C 20.792969 358.992188 20.574219 358.855469 20.363281 358.707031 C 20.152344 358.558594 19.949219 358.398438 19.757812 358.226562 C 19.566406 358.050781 19.390625 357.867188 19.222656 357.667969 C 19.054688 357.472656 18.898438 357.265625 18.757812 357.050781 C 18.617188 356.832031 18.492188 356.609375 18.378906 356.375 C 18.265625 356.144531 18.167969 355.90625 18.085938 355.660156 C 18.003906 355.414062 17.9375 355.167969 17.886719 354.914062 C 17.835938 354.660156 17.800781 354.402344 17.78125 354.148438 C 17.761719 353.890625 17.761719 353.632812 17.773438 353.371094 C 17.789062 353.113281 17.820312 352.859375 17.867188 352.605469 L 29.574219 289.320312 C 30.105469 286.429688 30.144531 283.53125 29.695312 280.625 C 29.246094 277.71875 28.332031 274.964844 26.949219 272.371094 C 23.484375 265.839844 20.433594 259.121094 17.789062 252.214844 C 15.148438 245.308594 12.933594 238.269531 11.148438 231.09375 C 9.363281 223.917969 8.019531 216.660156 7.121094 209.320312 C 6.21875 201.980469 5.769531 194.613281 5.769531 187.21875 C 5.734375 86.785156 87.0625 5.335938 187.421875 5.296875 C 287.742188 5.296875 369.074219 86.695312 369.074219 187.101562 Z M 369.074219 187.101562 " fill-opacity="1" fill-rule="nonzero"/></g><path fill="#ffffff" d="M 252.21875 246.828125 L 245.582031 256.425781 C 245.09375 257.136719 244.554688 257.804688 243.96875 258.429688 C 243.382812 259.058594 242.753906 259.644531 242.082031 260.179688 C 241.410156 260.714844 240.703125 261.199219 239.957031 261.632812 C 239.214844 262.066406 238.445312 262.445312 237.648438 262.765625 C 236.851562 263.085938 236.035156 263.347656 235.199219 263.546875 C 234.363281 263.75 233.515625 263.886719 232.660156 263.964844 C 231.804688 264.042969 230.945312 264.058594 230.085938 264.007812 C 229.230469 263.960938 228.378906 263.851562 227.535156 263.679688 C 142.203125 246.257812 123.644531 166.960938 119.613281 134.179688 C 119.492188 133.195312 119.453125 132.203125 119.496094 131.207031 C 119.542969 130.214844 119.667969 129.230469 119.878906 128.257812 C 120.089844 127.285156 120.382812 126.335938 120.753906 125.414062 C 121.125 124.492188 121.570312 123.605469 122.089844 122.757812 C 122.609375 121.910156 123.195312 121.109375 123.851562 120.363281 C 124.507812 119.613281 125.21875 118.925781 125.992188 118.296875 C 126.761719 117.667969 127.582031 117.109375 128.445312 116.621094 C 129.3125 116.128906 130.214844 115.714844 131.148438 115.378906 L 142.714844 111.210938 C 143.339844 110.984375 143.976562 110.796875 144.625 110.640625 C 145.1875 110.507812 145.753906 110.402344 146.328125 110.324219 C 146.898438 110.246094 147.472656 110.199219 148.050781 110.175781 C 148.628906 110.15625 149.207031 110.164062 149.785156 110.199219 C 150.359375 110.234375 150.933594 110.300781 151.503906 110.390625 C 152.074219 110.484375 152.640625 110.605469 153.199219 110.75 C 153.757812 110.898438 154.308594 111.074219 154.851562 111.277344 C 155.390625 111.476562 155.921875 111.707031 156.441406 111.960938 C 156.960938 112.214844 157.464844 112.492188 157.957031 112.796875 C 158.449219 113.101562 158.925781 113.425781 159.386719 113.777344 C 159.84375 114.128906 160.285156 114.5 160.710938 114.894531 C 161.132812 115.289062 161.535156 115.703125 161.917969 116.136719 C 162.300781 116.570312 162.660156 117.019531 163 117.488281 C 163.339844 117.957031 163.652344 118.441406 163.945312 118.941406 C 164.234375 119.441406 164.5 119.957031 164.738281 120.480469 C 164.980469 121.007812 165.195312 121.542969 165.382812 122.089844 C 165.570312 122.636719 165.730469 123.195312 165.863281 123.757812 L 170.878906 144.949219 C 171.1875 146.257812 171.347656 147.585938 171.351562 148.929688 C 171.359375 150.273438 171.214844 151.601562 170.917969 152.914062 C 170.621094 154.226562 170.179688 155.488281 169.597656 156.695312 C 169.011719 157.90625 168.296875 159.035156 167.457031 160.085938 L 163.703125 164.757812 C 163.148438 165.445312 162.652344 166.171875 162.210938 166.9375 C 161.765625 167.699219 161.382812 168.492188 161.058594 169.3125 C 160.730469 170.132812 160.46875 170.976562 160.269531 171.835938 C 160.070312 172.695312 159.9375 173.566406 159.867188 174.445312 C 159.796875 175.328125 159.796875 176.207031 159.859375 177.089844 C 159.921875 177.96875 160.046875 178.839844 160.238281 179.703125 C 160.433594 180.566406 160.6875 181.40625 161.007812 182.230469 C 161.324219 183.054688 161.703125 183.851562 162.140625 184.617188 C 169.941406 198.375 181.957031 208.296875 190.832031 214.28125 C 191.613281 214.808594 192.433594 215.269531 193.292969 215.664062 C 194.148438 216.058594 195.035156 216.382812 195.941406 216.632812 C 196.851562 216.886719 197.777344 217.0625 198.714844 217.167969 C 199.652344 217.269531 200.59375 217.296875 201.535156 217.25 C 202.476562 217.203125 203.410156 217.082031 204.332031 216.882812 C 205.253906 216.6875 206.15625 216.414062 207.035156 216.074219 C 207.914062 215.730469 208.761719 215.320312 209.574219 214.839844 C 210.386719 214.363281 211.15625 213.820312 211.886719 213.21875 C 212.617188 212.613281 213.390625 212.070312 214.210938 211.59375 C 215.03125 211.113281 215.882812 210.703125 216.769531 210.359375 C 217.652344 210.015625 218.5625 209.75 219.492188 209.554688 C 220.417969 209.359375 221.359375 209.238281 222.304688 209.195312 C 223.253906 209.148438 224.199219 209.183594 225.140625 209.289062 C 226.085938 209.398438 227.011719 209.582031 227.925781 209.84375 C 228.839844 210.101562 229.726562 210.429688 230.585938 210.832031 C 231.445312 211.234375 232.269531 211.703125 233.054688 212.238281 L 247.644531 222.179688 L 247.757812 222.253906 C 248.230469 222.585938 248.691406 222.9375 249.128906 223.3125 C 249.570312 223.683594 249.992188 224.082031 250.394531 224.496094 C 250.796875 224.910156 251.175781 225.347656 251.535156 225.800781 C 251.894531 226.253906 252.230469 226.722656 252.542969 227.207031 C 252.855469 227.695312 253.144531 228.195312 253.410156 228.710938 C 253.671875 229.222656 253.910156 229.75 254.125 230.289062 C 254.335938 230.828125 254.519531 231.375 254.679688 231.929688 C 254.839844 232.484375 254.96875 233.046875 255.074219 233.617188 C 255.175781 234.1875 255.25 234.757812 255.296875 235.335938 C 255.34375 235.910156 255.363281 236.488281 255.355469 237.066406 C 255.34375 237.644531 255.308594 238.222656 255.242188 238.796875 C 255.175781 239.371094 255.082031 239.941406 254.957031 240.507812 C 254.835938 241.070312 254.6875 241.628906 254.511719 242.179688 C 254.332031 242.730469 254.128906 243.273438 253.902344 243.800781 C 253.671875 244.332031 253.414062 244.851562 253.136719 245.355469 C 252.855469 245.863281 252.550781 246.351562 252.21875 246.828125 Z M 252.21875 246.828125 " fill-opacity="1" fill-rule="nonzero"/><path fill="#ffffff" d="M 165.035156 346.3125 C 165.035156 346.847656 165.007812 347.382812 164.957031 347.914062 C 164.902344 348.445312 164.824219 348.976562 164.722656 349.5 C 164.617188 350.023438 164.488281 350.542969 164.332031 351.054688 C 164.175781 351.566406 163.996094 352.066406 163.792969 352.5625 C 163.589844 353.054688 163.359375 353.539062 163.109375 354.011719 C 162.855469 354.480469 162.582031 354.941406 162.285156 355.382812 C 161.988281 355.828125 161.671875 356.257812 161.332031 356.671875 C 160.992188 357.085938 160.632812 357.480469 160.257812 357.859375 C 159.878906 358.238281 159.484375 358.59375 159.070312 358.933594 C 158.65625 359.273438 158.226562 359.59375 157.785156 359.890625 C 157.339844 360.1875 156.882812 360.460938 156.410156 360.714844 C 155.941406 360.964844 155.457031 361.195312 154.964844 361.398438 C 154.46875 361.601562 153.96875 361.78125 153.457031 361.9375 C 152.945312 362.09375 152.425781 362.222656 151.902344 362.328125 C 151.378906 362.429688 150.851562 362.511719 150.320312 362.5625 C 149.789062 362.613281 149.253906 362.640625 148.71875 362.640625 C 148.1875 362.640625 147.652344 362.613281 147.121094 362.5625 C 146.589844 362.511719 146.0625 362.429688 145.539062 362.328125 C 145.015625 362.222656 144.496094 362.09375 143.984375 361.9375 C 143.472656 361.78125 142.972656 361.601562 142.476562 361.398438 C 141.984375 361.195312 141.5 360.964844 141.03125 360.714844 C 140.558594 360.460938 140.101562 360.1875 139.65625 359.890625 C 139.210938 359.59375 138.785156 359.273438 138.371094 358.933594 C 137.957031 358.59375 137.5625 358.238281 137.183594 357.859375 C 136.808594 357.480469 136.449219 357.085938 136.109375 356.671875 C 135.769531 356.257812 135.453125 355.828125 135.15625 355.382812 C 134.859375 354.941406 134.585938 354.480469 134.332031 354.011719 C 134.082031 353.539062 133.851562 353.054688 133.648438 352.5625 C 133.445312 352.066406 133.265625 351.566406 133.109375 351.054688 C 132.953125 350.542969 132.824219 350.023438 132.71875 349.5 C 132.617188 348.976562 132.539062 348.445312 132.484375 347.914062 C 132.433594 347.382812 132.40625 346.847656 132.40625 346.3125 C 132.40625 345.777344 132.433594 345.246094 132.484375 344.714844 C 132.539062 344.179688 132.617188 343.652344 132.71875 343.128906 C 132.824219 342.605469 132.953125 342.085938 133.109375 341.574219 C 133.265625 341.0625 133.445312 340.558594 133.648438 340.066406 C 133.851562 339.570312 134.082031 339.089844 134.332031 338.617188 C 134.585938 338.144531 134.859375 337.6875 135.15625 337.242188 C 135.453125 336.796875 135.769531 336.371094 136.109375 335.957031 C 136.449219 335.542969 136.808594 335.148438 137.183594 334.769531 C 137.5625 334.390625 137.957031 334.03125 138.371094 333.691406 C 138.785156 333.355469 139.210938 333.035156 139.65625 332.738281 C 140.101562 332.441406 140.558594 332.167969 141.03125 331.914062 C 141.5 331.664062 141.984375 331.433594 142.476562 331.230469 C 142.972656 331.023438 143.472656 330.84375 143.984375 330.691406 C 144.496094 330.535156 145.015625 330.40625 145.539062 330.300781 C 146.0625 330.195312 146.589844 330.117188 147.121094 330.066406 C 147.652344 330.011719 148.1875 329.988281 148.71875 329.988281 C 149.253906 329.988281 149.789062 330.011719 150.320312 330.066406 C 150.851562 330.117188 151.378906 330.195312 151.902344 330.300781 C 152.425781 330.40625 152.945312 330.535156 153.457031 330.691406 C 153.96875 330.84375 154.46875 331.023438 154.964844 331.230469 C 155.457031 331.433594 155.941406 331.664062 156.410156 331.914062 C 156.882812 332.167969 157.339844 332.441406 157.785156 332.738281 C 158.226562 333.035156 158.65625 333.355469 159.070312 333.691406 C 159.484375 334.03125 159.878906 334.390625 160.257812 334.769531 C 160.632812 335.148438 160.992188 335.542969 161.332031 335.957031 C 161.671875 336.371094 161.988281 336.796875 162.285156 337.242188 C 162.582031 337.6875 162.855469 338.144531 163.109375 338.617188 C 163.359375 339.089844 163.589844 339.570312 163.792969 340.066406 C 163.996094 340.558594 164.175781 341.0625 164.332031 341.574219 C 164.488281 342.085938 164.617188 342.605469 164.722656 343.128906 C 164.824219 343.652344 164.902344 344.179688 164.957031 344.714844 C 165.007812 345.246094 165.035156 345.777344 165.035156 346.3125 Z M 165.035156 346.3125 " fill-opacity="1" fill-rule="nonzero"/></svg>