<?xml version="1.0" encoding="UTF-8"?>
<svg xmlns="http://www.w3.org/2000/svg" xmlns:xlink="http://www.w3.org/1999/xlink" width="750pt" height="749.999995pt" viewBox="0 0 750 749.999995" version="1.2">
<g id="surface1">
<path style=" stroke:none;fill-rule:nonzero;fill:rgb(100%,100%,100%);fill-opacity:1;" d="M 471.742188 278.472656 C 418.34375 225.074219 331.511719 225.074219 278.257812 278.472656 C 232.378906 324.347656 225 395.984375 260.167969 449.964844 L 237.011719 505.96875 C 236.144531 507.996094 236.722656 510.3125 238.167969 511.757812 C 239.183594 512.769531 240.628906 513.351562 241.933594 513.351562 C 242.65625 513.351562 243.378906 513.207031 243.957031 512.917969 L 299.964844 489.761719 C 353.945312 524.925781 425.578125 517.691406 471.453125 471.816406 C 525 418.703125 525 331.875 471.742188 278.472656 Z M 464.074219 464.4375 C 421.238281 507.273438 353.800781 513.640625 303.871094 479.484375 C 303.003906 478.90625 301.84375 478.617188 300.832031 478.617188 C 300.109375 478.617188 299.386719 478.761719 298.804688 479.050781 L 252.0625 498.300781 L 271.308594 451.554688 C 272.035156 449.820312 271.742188 447.9375 270.730469 446.492188 C 236.578125 396.417969 242.800781 328.980469 285.78125 286.144531 C 334.984375 236.9375 415.015625 236.9375 464.074219 286.144531 C 513.277344 335.347656 513.277344 415.375 464.074219 464.4375 Z M 464.074219 464.4375 "/>
<path style=" stroke:none;fill-rule:nonzero;fill:rgb(100%,100%,100%);fill-opacity:1;" d="M 436.867188 399.601562 C 430.644531 393.378906 420.367188 393.378906 414.144531 399.601562 L 408.503906 405.246094 C 405.464844 407.707031 392.003906 408.429688 366.679688 383.105469 C 341.351562 357.777344 342.078125 344.320312 344.246094 341.425781 L 350.035156 335.636719 C 353.074219 332.597656 354.8125 328.546875 354.8125 324.203125 C 354.8125 319.863281 353.074219 315.808594 350.035156 312.769531 L 336.722656 299.457031 C 330.933594 293.667969 321.816406 293.089844 315.304688 298.300781 C 308.066406 304.234375 299.238281 314.652344 298.515625 330.859375 C 297.359375 353.003906 311.6875 379.195312 341.207031 408.574219 C 369.574219 436.9375 394.898438 451.265625 416.460938 451.265625 C 417.328125 451.265625 418.199219 451.265625 419.066406 451.121094 C 435.273438 450.253906 445.550781 441.425781 451.339844 434.191406 C 456.402344 427.820312 455.824219 418.703125 450.179688 413.0625 C 446.273438 409.152344 441.0625 403.945312 436.867188 399.601562 Z M 442.945312 427.53125 C 438.457031 433.03125 430.644531 439.832031 418.488281 440.414062 C 399.820312 441.425781 375.652344 427.820312 348.734375 400.90625 C 321.960938 374.132812 308.210938 349.964844 309.226562 331.296875 C 309.804688 318.996094 316.605469 311.035156 322.105469 306.691406 C 323.117188 305.96875 324.277344 305.535156 325.433594 305.535156 C 326.882812 305.535156 328.183594 306.113281 329.195312 307.128906 L 342.511719 320.441406 C 344.535156 322.46875 344.535156 325.941406 342.511719 327.964844 L 336.722656 333.753906 C 334.984375 335.492188 320.660156 352.132812 359.152344 390.628906 C 397.648438 429.125 414.144531 414.796875 416.027344 413.0625 L 421.816406 407.273438 C 423.84375 405.246094 427.316406 405.246094 429.339844 407.273438 C 433.539062 411.46875 438.75 416.535156 442.511719 420.730469 C 444.390625 422.613281 444.535156 425.507812 442.945312 427.53125 Z M 442.945312 427.53125 "/>
</g>
</svg>
